<svg width="56" height="69" viewBox="0 0 56 69" fill="none" xmlns="http://www.w3.org/2000/svg">
<path d="M34.5 2H8.5C6.77609 2 5.12279 2.68482 3.90381 3.90381C2.68482 5.12279 2 6.77609 2 8.5V60.5C2 62.2239 2.68482 63.8772 3.90381 65.0962C5.12279 66.3152 6.77609 67 8.5 67H47.5C49.2239 67 50.8772 66.3152 52.0962 65.0962C53.3152 63.8772 54 62.2239 54 60.5V21.5L34.5 2Z" stroke="white" stroke-width="3" stroke-linecap="round" stroke-linejoin="round"/>
<path d="M34.5 2V21.5H54" stroke="white" stroke-width="3" stroke-linecap="round" stroke-linejoin="round"/>
<path d="M41 37.75H15" stroke="white" stroke-width="3" stroke-linecap="round" stroke-linejoin="round"/>
<path d="M41 50.75H15" stroke="white" stroke-width="3" stroke-linecap="round" stroke-linejoin="round"/>
<path d="M21.5 24.75H18.25H15" stroke="white" stroke-width="3" stroke-linecap="round" stroke-linejoin="round"/>
</svg>
