<svg width="48" height="51" viewBox="0 0 48 51" fill="none" xmlns="http://www.w3.org/2000/svg">
<path d="M41.2 23.1758H6.9C4.1938 23.1758 2 25.2826 2 27.8815V44.3517C2 46.9507 4.1938 49.0575 6.9 49.0575H41.2C43.9062 49.0575 46.1 46.9507 46.1 44.3517V27.8815C46.1 25.2826 43.9062 23.1758 41.2 23.1758Z" stroke="#9FA7B0" stroke-width="3" stroke-linecap="round" stroke-linejoin="round"/>
<path d="M11.8 23.1759V13.7644C11.8 10.6443 13.0906 7.65196 15.3879 5.44571C17.6853 3.23946 20.8011 2 24.05 2C27.2989 2 30.4147 3.23946 32.712 5.44571C35.0094 7.65196 36.3 10.6443 36.3 13.7644V23.1759" stroke="#9FA7B0" stroke-width="3" stroke-linecap="round" stroke-linejoin="round"/>
</svg>
