<svg width="49" height="49" viewBox="0 0 49 49" fill="none" xmlns="http://www.w3.org/2000/svg">
<path d="M29.9728 9.55859C36.6503 11.8618 41.3166 18.2579 41.3166 25.461C41.3166 25.4924 41.3154 25.5237 41.3152 25.555C42.3448 25.5849 43.3165 25.8467 44.1807 26.2906C44.1923 26.0144 44.1989 25.738 44.1989 25.461C44.1989 20.9277 42.6212 16.5022 39.7561 12.9992C37.4922 10.2311 34.508 8.13196 31.1786 6.92871C30.9699 7.89906 30.5517 8.79241 29.9728 9.55859Z" fill="#9FA7B0"/>
<path d="M20.7614 3.84313V5.51237C20.7614 7.63489 22.4821 9.3555 24.6045 9.3555C26.727 9.3555 28.4477 7.63489 28.4477 5.51237V3.84313C28.4477 1.78701 26.8331 0.108053 24.8027 0.00495123C24.7404 0.00262124 24.678 0.000291249 24.6152 0.000291249C24.6116 0.000291249 24.6082 0 24.6046 0C24.5381 0 24.4723 0.00262124 24.4065 0.00495123C22.376 0.108053 20.7614 1.7871 20.7614 3.84313Z" fill="#9FA7B0"/>
<path d="M41.1186 37.7876C43.2411 37.7876 44.9618 36.067 44.9618 33.9445V32.2753C44.9618 30.1528 43.2411 28.4321 41.1186 28.4321C38.9962 28.4321 37.2755 30.1528 37.2755 32.2753V33.9445C37.2755 36.067 38.9961 37.7876 41.1186 37.7876Z" fill="#9FA7B0"/>
<path d="M11.7245 33.9445V32.2753C11.7245 30.1528 10.0038 28.4321 7.88133 28.4321C5.75891 28.4321 4.03821 30.1528 4.03821 32.2753V33.9445C4.03821 36.067 5.75891 37.7876 7.88133 37.7876C10.0038 37.7876 11.7245 36.067 11.7245 33.9445Z" fill="#9FA7B0"/>
<path d="M16.923 21.6321H32.2907V19.1118C32.0953 15.6802 30.6165 12.5731 28.4693 11.0112C27.3749 11.7827 26.0421 12.2377 24.6043 12.2377C23.2209 12.2377 21.934 11.8174 20.8637 11.0985C18.7169 12.6903 17.2134 15.6547 16.9181 19.1118L16.923 21.6321Z" fill="#9FA7B0"/>
<path d="M7.69051 25.5547C7.69032 25.5234 7.68896 25.4921 7.68896 25.4607C7.68896 18.1351 12.4097 11.7482 19.1936 9.50119C18.6231 8.72938 18.2131 7.83224 18.0145 6.85889C10.2124 9.57051 4.80676 16.978 4.80676 25.4607C4.80676 25.7365 4.81375 26.0122 4.82531 26.2874C5.68963 25.8444 6.66124 25.5836 7.69051 25.5547Z" fill="#9FA7B0"/>
<path d="M35.1683 42.0231C34.1537 43.6926 33.6015 45.6188 33.4324 47.5589V49.0001H48.805V47.5589C48.6185 44.6131 47.5313 41.5129 45.1842 39.6089C45.1772 39.6034 45.1701 39.598 45.1631 39.5925C45.1009 39.5438 45.038 39.4962 44.9745 39.4502C43.8818 40.2177 42.5526 40.6702 41.1187 40.6702C39.7394 40.6702 38.4559 40.2527 37.3876 39.5376C36.5346 40.1677 35.7833 41.0144 35.1683 42.0231Z" fill="#9FA7B0"/>
<path d="M33.088 39.9277C30.5243 41.4583 27.5872 42.2746 24.5028 42.2746C21.5179 42.2746 18.671 41.5105 16.1669 40.0743C16.2462 40.1986 16.3245 40.3245 16.4007 40.4532C17.0463 41.5434 17.5483 42.7468 17.8971 44.0212C20.0101 44.7749 22.2257 45.157 24.5029 45.157C26.8058 45.157 29.0456 44.7658 31.1804 43.9949C31.6245 42.488 32.2728 41.1141 33.088 39.9277Z" fill="#9FA7B0"/>
<path d="M11.7382 39.4507C10.6456 40.2184 9.31515 40.6699 7.88123 40.6699C6.50207 40.6699 5.21883 40.2519 4.15043 39.5369C3.81491 39.7847 3.49522 40.0661 3.19319 40.3775C1.61783 42.0142 0.705056 44.2188 0.335364 46.4428C0.274105 46.8127 0.227602 47.1843 0.194885 47.5584V48.9996H15.5675V47.5584C15.4564 45.6811 14.9709 43.8118 14.058 42.1625C13.4351 41.0434 12.6465 40.1091 11.7382 39.4507Z" fill="#9FA7B0"/>
</svg>
