<svg width="60" height="60" viewBox="0 0 60 60" fill="none" xmlns="http://www.w3.org/2000/svg">
<path d="M36.7014 11.7041C44.878 14.5244 50.5918 22.3564 50.5918 31.1765C50.5918 31.215 50.5903 31.2533 50.59 31.2916C51.8507 31.3281 53.0406 31.6488 54.0988 32.1924C54.1131 31.8542 54.1212 31.5156 54.1212 31.1765C54.1212 25.6255 52.1892 20.2065 48.681 15.9172C45.9088 12.5276 42.2547 9.95725 38.1779 8.48389C37.9223 9.67206 37.4102 10.766 36.7014 11.7041Z" fill="white"/>
<path d="M25.4221 4.70587V6.74984C25.4221 9.34885 27.5291 11.4557 30.128 11.4557C32.7269 11.4557 34.8339 9.34885 34.8339 6.74984V4.70587C34.8339 2.18817 32.8569 0.13231 30.3707 0.00606273C30.2943 0.00320968 30.218 0.000356631 30.1411 0.000356631C30.1367 0.000356631 30.1325 0 30.1281 0C30.0467 0 29.9661 0.00320968 29.8855 0.00606273C27.3992 0.13231 25.4221 2.18829 25.4221 4.70587Z" fill="white"/>
<path d="M50.3494 46.2707C52.9483 46.2707 55.0553 44.1638 55.0553 41.5648V39.5208C55.0553 36.9219 52.9483 34.8149 50.3494 34.8149C47.7505 34.8149 45.6435 36.9219 45.6435 39.5208V41.5648C45.6435 44.1638 47.7504 46.2707 50.3494 46.2707Z" fill="white"/>
<path d="M14.3565 41.5648V39.5208C14.3565 36.9219 12.2496 34.8149 9.65066 34.8149C7.05177 34.8149 4.94479 36.9219 4.94479 39.5208V41.5648C4.94479 44.1638 7.05177 46.2707 9.65066 46.2707C12.2496 46.2707 14.3565 44.1638 14.3565 41.5648Z" fill="white"/>
<path d="M20.7221 26.4883H39.5396V23.4023C39.3003 19.2003 37.4896 15.3956 34.8604 13.4832C33.5203 14.4278 31.8883 14.9849 30.1278 14.9849C28.4338 14.9849 26.8579 14.4703 25.5474 13.59C22.9187 15.5391 21.0777 19.169 20.716 23.4023L20.7221 26.4883Z" fill="white"/>
<path d="M9.41699 31.2915C9.41675 31.2531 9.41509 31.2149 9.41509 31.1765C9.41509 22.2062 15.1956 14.3856 23.5024 11.6342C22.8039 10.6891 22.3018 9.59054 22.0586 8.39868C12.5051 11.719 5.88586 20.7895 5.88586 31.1765C5.88586 31.5142 5.89442 31.8517 5.90857 32.1887C6.96693 31.6463 8.15665 31.327 9.41699 31.2915Z" fill="white"/>
<path d="M43.0632 51.4569C41.8208 53.5012 41.1446 55.8598 40.9377 58.2354V60.0001H59.7612V58.2354C59.5329 54.6283 58.2016 50.8322 55.3276 48.5008C55.319 48.494 55.3104 48.4873 55.3018 48.4807C55.2256 48.421 55.1486 48.3627 55.0708 48.3064C53.7329 49.2462 52.1052 49.8003 50.3494 49.8003C48.6605 49.8003 47.0888 49.289 45.7807 48.4134C44.7363 49.185 43.8163 50.2217 43.0632 51.4569Z" fill="white"/>
<path d="M40.516 48.8909C37.3767 50.7651 33.7803 51.7646 30.0035 51.7646C26.3485 51.7646 22.8625 50.8289 19.7962 49.0704C19.8933 49.2225 19.9893 49.3767 20.0826 49.5343C20.8731 50.8692 21.4877 52.3428 21.9148 53.9033C24.5022 54.8261 27.2152 55.294 30.0036 55.294C32.8235 55.294 35.5661 54.815 38.1801 53.8711C38.7239 52.0259 39.5178 50.3435 40.516 48.8909Z" fill="white"/>
<path d="M14.3734 48.3069C13.0354 49.247 11.4063 49.7997 9.65052 49.7997C7.96175 49.7997 6.39043 49.288 5.08219 48.4124C4.67135 48.7159 4.27989 49.0604 3.91006 49.4418C1.98104 51.4458 0.863362 54.1454 0.410678 56.8687C0.335666 57.3216 0.278724 57.7767 0.238663 58.2347V59.9994H19.0623V58.2347C18.9263 55.936 18.3318 53.647 17.214 51.6275C16.4511 50.2572 15.4855 49.1131 14.3734 48.3069Z" fill="white"/>
</svg>
