<svg width="42" height="51" viewBox="0 0 42 51" fill="none" xmlns="http://www.w3.org/2000/svg">
<path d="M25.75 2H6.75C5.49022 2 4.28204 2.50044 3.39124 3.39124C2.50044 4.28204 2 5.49022 2 6.75V44.75C2 46.0098 2.50044 47.218 3.39124 48.1088C4.28204 48.9996 5.49022 49.5 6.75 49.5H35.25C36.5098 49.5 37.718 48.9996 38.6088 48.1088C39.4996 47.218 40 46.0098 40 44.75V16.25L25.75 2Z" stroke="#9FA7B0" stroke-width="3" stroke-linecap="round" stroke-linejoin="round"/>
<path d="M25.75 2V16.25H40" stroke="#9FA7B0" stroke-width="3" stroke-linecap="round" stroke-linejoin="round"/>
<path d="M30.5 28.125H11.5" stroke="#9FA7B0" stroke-width="3" stroke-linecap="round" stroke-linejoin="round"/>
<path d="M30.5 37.625H11.5" stroke="#9FA7B0" stroke-width="3" stroke-linecap="round" stroke-linejoin="round"/>
<path d="M16.25 18.625H13.875H11.5" stroke="#9FA7B0" stroke-width="3" stroke-linecap="round" stroke-linejoin="round"/>
</svg>
