<svg width="56" height="60" viewBox="0 0 56 60" fill="none" xmlns="http://www.w3.org/2000/svg">
<path d="M48.2333 26.9214H7.86664C4.6818 26.9214 2.09998 29.4009 2.09998 32.4595V51.8428C2.09998 54.9014 4.6818 57.3808 7.86664 57.3808H48.2333C51.4182 57.3808 54 54.9014 54 51.8428V32.4595C54 29.4009 51.4182 26.9214 48.2333 26.9214Z" stroke="white" stroke-width="4" stroke-linecap="round" stroke-linejoin="round"/>
<path d="M13.6333 26.9213V15.8452C13.6333 12.1732 15.1522 8.65164 17.8558 6.05516C20.5595 3.45868 24.2264 2 28.05 2C31.8735 2 35.5405 3.45868 38.2441 6.05516C40.9478 8.65164 42.4667 12.1732 42.4667 15.8452V26.9213" stroke="white" stroke-width="4" stroke-linecap="round" stroke-linejoin="round"/>
</svg>
